<?xml version="1.0" standalone="no"?><!-- Generator: Gravit.io --><svg xmlns="http://www.w3.org/2000/svg" xmlns:xlink="http://www.w3.org/1999/xlink" style="isolation:isolate" viewBox="0 0 512 512.001" width="512" height="512.001"><g id="null"><g id="null"><mask id="_mask_xMTrl0OIfAHrMXtK9XW6CSz20dtJNzY0"><path d=" M 424.111 151.058 L 422.801 151.058 L 422.801 29.068 C 422.802 13.04 409.763 0 393.735 0 L 75.929 0 C 71.102 0 67.191 3.912 67.191 8.738 L 67.191 442.903 C 67.191 447.729 71.102 451.641 75.929 451.641 L 119.236 451.641 L 119.236 503.263 C 119.236 506.485 121.009 509.447 123.851 510.967 C 126.691 512.486 130.139 512.322 132.82 510.532 L 154.184 496.288 L 175.549 510.532 C 177.011 511.507 178.7 512 180.395 512 C 181.809 512 183.227 511.658 184.518 510.966 C 187.358 509.446 189.133 506.485 189.133 503.263 L 189.133 451.641 L 393.734 451.641 C 409.762 451.641 422.801 438.601 422.801 422.573 L 422.801 300.585 L 424.11 300.585 C 435.523 300.585 444.808 291.301 444.808 279.888 L 444.808 171.755 C 444.809 160.342 435.524 151.058 424.111 151.058 Z  M 393.733 17.475 C 400.125 17.475 405.326 22.676 405.326 29.068 L 405.326 59.728 C 383.779 56.048 366.743 39.016 363.06 17.475 L 393.733 17.475 L 393.733 17.475 Z  M 101.205 434.165 L 84.666 434.165 L 84.666 17.475 L 101.205 17.475 L 101.205 434.165 L 101.205 434.165 Z  M 171.658 486.936 L 159.03 478.518 C 157.562 477.539 155.873 477.05 154.184 477.05 C 152.495 477.05 150.805 477.539 149.338 478.518 L 136.712 486.935 L 136.712 451.641 L 171.659 451.641 L 171.659 486.936 L 171.658 486.936 Z  M 118.68 434.165 L 118.68 17.475 L 345.404 17.475 C 349.353 48.665 374.13 73.435 405.327 77.384 L 405.327 151.057 L 396.268 151.057 C 380.17 151.057 367.073 164.154 367.073 180.252 L 367.073 271.39 C 367.073 287.488 380.169 300.585 396.268 300.585 L 405.327 300.585 L 405.327 374.255 C 374.131 378.203 349.355 402.974 345.404 434.165 L 118.68 434.165 L 118.68 434.165 Z  M 405.328 422.572 C 405.327 428.964 400.126 434.165 393.735 434.165 L 363.062 434.165 C 366.743 412.624 383.781 395.592 405.328 391.912 L 405.328 422.572 L 405.328 422.572 Z  M 427.334 279.888 C 427.334 281.665 425.889 283.109 424.112 283.109 L 396.268 283.109 C 389.806 283.109 384.548 277.851 384.548 271.389 L 384.548 180.251 C 384.548 173.789 389.806 168.531 396.268 168.531 L 424.112 168.531 C 425.889 168.531 427.334 169.977 427.334 171.753 L 427.334 279.888 L 427.334 279.888 Z " fill="white" stroke="none"/></mask><path d=" M 424.111 151.058 L 422.801 151.058 L 422.801 29.068 C 422.802 13.04 409.763 0 393.735 0 L 75.929 0 C 71.102 0 67.191 3.912 67.191 8.738 L 67.191 442.903 C 67.191 447.729 71.102 451.641 75.929 451.641 L 119.236 451.641 L 119.236 503.263 C 119.236 506.485 121.009 509.447 123.851 510.967 C 126.691 512.486 130.139 512.322 132.82 510.532 L 154.184 496.288 L 175.549 510.532 C 177.011 511.507 178.7 512 180.395 512 C 181.809 512 183.227 511.658 184.518 510.966 C 187.358 509.446 189.133 506.485 189.133 503.263 L 189.133 451.641 L 393.734 451.641 C 409.762 451.641 422.801 438.601 422.801 422.573 L 422.801 300.585 L 424.11 300.585 C 435.523 300.585 444.808 291.301 444.808 279.888 L 444.808 171.755 C 444.809 160.342 435.524 151.058 424.111 151.058 Z  M 393.733 17.475 C 400.125 17.475 405.326 22.676 405.326 29.068 L 405.326 59.728 C 383.779 56.048 366.743 39.016 363.06 17.475 L 393.733 17.475 L 393.733 17.475 Z  M 101.205 434.165 L 84.666 434.165 L 84.666 17.475 L 101.205 17.475 L 101.205 434.165 L 101.205 434.165 Z  M 171.658 486.936 L 159.03 478.518 C 157.562 477.539 155.873 477.05 154.184 477.05 C 152.495 477.05 150.805 477.539 149.338 478.518 L 136.712 486.935 L 136.712 451.641 L 171.659 451.641 L 171.659 486.936 L 171.658 486.936 Z  M 118.68 434.165 L 118.68 17.475 L 345.404 17.475 C 349.353 48.665 374.13 73.435 405.327 77.384 L 405.327 151.057 L 396.268 151.057 C 380.17 151.057 367.073 164.154 367.073 180.252 L 367.073 271.39 C 367.073 287.488 380.169 300.585 396.268 300.585 L 405.327 300.585 L 405.327 374.255 C 374.131 378.203 349.355 402.974 345.404 434.165 L 118.68 434.165 L 118.68 434.165 Z  M 405.328 422.572 C 405.327 428.964 400.126 434.165 393.735 434.165 L 363.062 434.165 C 366.743 412.624 383.781 395.592 405.328 391.912 L 405.328 422.572 L 405.328 422.572 Z  M 427.334 279.888 C 427.334 281.665 425.889 283.109 424.112 283.109 L 396.268 283.109 C 389.806 283.109 384.548 277.851 384.548 271.389 L 384.548 180.251 C 384.548 173.789 389.806 168.531 396.268 168.531 L 424.112 168.531 C 425.889 168.531 427.334 169.977 427.334 171.753 L 427.334 279.888 L 427.334 279.888 Z " fill="none" mask="url(#_mask_xMTrl0OIfAHrMXtK9XW6CSz20dtJNzY0)" vector-effect="non-scaling-stroke" stroke-width="4" stroke="rgb(0,0,0)" stroke-linejoin="round" stroke-linecap="round" stroke-miterlimit="4"/></g></g><g id="null"><g id="null"><mask id="_mask_kfdhwyFvwfolwhQyZnoMD8hZDtEFqXx0"><path d=" M 327.205 156.924 L 278.104 156.924 L 278.104 105.247 C 278.104 100.422 274.193 96.509 269.366 96.509 L 235.695 96.509 C 230.868 96.509 226.957 100.421 226.957 105.247 L 226.957 156.924 L 177.856 156.924 C 173.029 156.924 169.118 160.836 169.118 165.662 L 169.118 199.333 C 169.118 204.158 173.029 208.071 177.856 208.071 L 226.957 208.071 L 226.957 346.393 C 226.957 351.219 230.868 355.131 235.695 355.131 L 269.366 355.131 C 274.193 355.131 278.104 351.219 278.104 346.393 L 278.104 208.071 L 327.205 208.071 C 332.032 208.071 335.943 204.159 335.943 199.333 L 335.943 165.662 C 335.943 160.836 332.032 156.924 327.205 156.924 Z  M 318.468 190.595 L 269.367 190.595 C 264.54 190.595 260.629 194.507 260.629 199.333 L 260.629 337.655 L 244.433 337.655 L 244.433 199.333 C 244.433 194.507 240.522 190.595 235.695 190.595 L 186.594 190.595 L 186.594 174.399 L 235.695 174.399 C 240.522 174.399 244.433 170.487 244.433 165.661 L 244.433 113.984 L 260.629 113.984 L 260.629 165.661 C 260.629 170.487 264.54 174.399 269.367 174.399 L 318.468 174.399 L 318.468 190.595 L 318.468 190.595 Z " fill="white" stroke="none"/></mask><path d=" M 327.205 156.924 L 278.104 156.924 L 278.104 105.247 C 278.104 100.422 274.193 96.509 269.366 96.509 L 235.695 96.509 C 230.868 96.509 226.957 100.421 226.957 105.247 L 226.957 156.924 L 177.856 156.924 C 173.029 156.924 169.118 160.836 169.118 165.662 L 169.118 199.333 C 169.118 204.158 173.029 208.071 177.856 208.071 L 226.957 208.071 L 226.957 346.393 C 226.957 351.219 230.868 355.131 235.695 355.131 L 269.366 355.131 C 274.193 355.131 278.104 351.219 278.104 346.393 L 278.104 208.071 L 327.205 208.071 C 332.032 208.071 335.943 204.159 335.943 199.333 L 335.943 165.662 C 335.943 160.836 332.032 156.924 327.205 156.924 Z  M 318.468 190.595 L 269.367 190.595 C 264.54 190.595 260.629 194.507 260.629 199.333 L 260.629 337.655 L 244.433 337.655 L 244.433 199.333 C 244.433 194.507 240.522 190.595 235.695 190.595 L 186.594 190.595 L 186.594 174.399 L 235.695 174.399 C 240.522 174.399 244.433 170.487 244.433 165.661 L 244.433 113.984 L 260.629 113.984 L 260.629 165.661 C 260.629 170.487 264.54 174.399 269.367 174.399 L 318.468 174.399 L 318.468 190.595 L 318.468 190.595 Z " fill="none" mask="url(#_mask_kfdhwyFvwfolwhQyZnoMD8hZDtEFqXx0)" vector-effect="non-scaling-stroke" stroke-width="4" stroke="rgb(0,0,0)" stroke-linejoin="round" stroke-linecap="round" stroke-miterlimit="4"/></g></g><g id="null"><g id="null"><mask id="_mask_kju8kH3I8ZGbhqvaEO4We8kpMEUNsvVD"><path d=" M 397.2 252.913 C 397.2 248.09 401.115 244.175 405.938 244.175 C 410.761 244.175 414.676 248.09 414.676 252.913 C 414.676 257.736 410.761 261.651 405.938 261.651 C 401.115 261.651 397.2 257.736 397.2 252.913 Z " fill="white" stroke="none"/></mask><path d=" M 397.2 252.913 C 397.2 248.09 401.115 244.175 405.938 244.175 C 410.761 244.175 414.676 248.09 414.676 252.913 C 414.676 257.736 410.761 261.651 405.938 261.651 C 401.115 261.651 397.2 257.736 397.2 252.913 Z " fill="none" mask="url(#_mask_kju8kH3I8ZGbhqvaEO4We8kpMEUNsvVD)" vector-effect="non-scaling-stroke" stroke-width="4" stroke="rgb(0,0,0)" stroke-linejoin="round" stroke-linecap="round" stroke-miterlimit="4"/></g></g><g id="null"><g id="null"><mask id="_mask_WEOH6RkLevWkPnvMhPeEbkanUEaHGn14"><path d=" M 397.2 198.74 C 397.2 193.917 401.115 190.002 405.938 190.002 C 410.761 190.002 414.676 193.917 414.676 198.74 C 414.676 203.563 410.761 207.478 405.938 207.478 C 401.115 207.478 397.2 203.563 397.2 198.74 Z " fill="white" stroke="none"/></mask><path d=" M 397.2 198.74 C 397.2 193.917 401.115 190.002 405.938 190.002 C 410.761 190.002 414.676 193.917 414.676 198.74 C 414.676 203.563 410.761 207.478 405.938 207.478 C 401.115 207.478 397.2 203.563 397.2 198.74 Z " fill="none" mask="url(#_mask_WEOH6RkLevWkPnvMhPeEbkanUEaHGn14)" vector-effect="non-scaling-stroke" stroke-width="4" stroke="rgb(0,0,0)" stroke-linejoin="round" stroke-linecap="round" stroke-miterlimit="4"/></g></g></svg>