<?xml version="1.0" standalone="no"?><!-- Generator: Gravit.io --><svg xmlns="http://www.w3.org/2000/svg" xmlns:xlink="http://www.w3.org/1999/xlink" style="isolation:isolate" viewBox="0 -5 512 522" width="512" height="522"><g id="null"><g id="null"><mask id="_mask_JqjboXD2q0wfhPcmXtQ3YMBXrKRistUt"><path d=" M 452.911 59.872 C 448.198 59.872 444.378 63.693 444.378 68.405 L 444.378 362.757 L 118.439 362.757 L 118.439 300.515 C 118.439 295.802 114.618 291.982 109.906 291.982 C 105.193 291.982 101.373 295.803 101.373 300.515 L 101.373 363.38 C 88.251 365.278 76.509 371.481 67.624 380.51 L 67.624 59.349 C 67.624 38.957 82.135 21.891 101.373 17.933 L 101.373 50.039 C 101.373 54.752 105.194 58.572 109.906 58.572 C 114.619 58.572 118.439 54.751 118.439 50.039 L 118.439 17.067 L 444.378 17.067 L 444.378 39.961 C 444.377 44.674 448.198 48.494 452.91 48.494 C 457.623 48.494 461.443 44.673 461.443 39.961 L 461.443 8.533 C 461.443 3.82 457.622 0 452.91 0 L 109.905 0 C 77.179 0 50.557 26.624 50.557 59.349 L 50.557 422.059 C 50.557 422.074 50.556 422.089 50.556 422.103 C 50.556 428.38 51.536 434.565 53.465 440.476 C 56.34 449.326 61.344 457.487 67.941 464.084 C 79.162 475.29 94.063 481.461 109.902 481.461 L 122.02 481.461 L 122.02 503.467 C 122.02 506.57 123.703 509.427 126.416 510.931 C 129.127 512.434 132.443 512.348 135.076 510.703 L 166.962 490.774 L 198.848 510.703 C 200.229 511.567 201.798 512 203.371 512 C 204.793 512 206.219 511.645 207.508 510.93 C 210.222 509.426 211.904 506.569 211.904 503.466 L 211.904 481.46 L 452.907 481.46 C 457.62 481.46 461.44 477.639 461.44 472.927 L 461.443 68.405 C 461.445 63.693 457.624 59.872 452.911 59.872 Z  M 194.837 472.916 C 194.837 472.919 194.837 472.923 194.837 472.927 C 194.837 472.932 194.837 472.934 194.837 472.938 L 194.837 488.069 L 171.484 473.474 C 170.1 472.609 168.53 472.177 166.961 472.177 C 165.392 472.177 163.822 472.609 162.438 473.474 L 139.085 488.069 L 139.085 413.012 L 194.836 413.012 L 194.836 472.916 L 194.837 472.916 L 194.837 472.916 Z  M 220.437 395.947 L 110.073 395.947 C 105.36 395.947 101.54 399.768 101.54 404.48 C 101.54 409.193 105.361 413.013 110.073 413.013 L 122.02 413.013 L 122.02 429.306 L 98.695 429.306 C 93.982 429.306 90.162 433.127 90.162 437.839 C 90.162 442.551 93.983 446.372 98.695 446.372 L 122.019 446.372 L 122.019 464.393 L 109.901 464.393 C 98.618 464.393 87.998 459.994 80.004 452.011 C 75.307 447.314 71.743 441.501 69.692 435.19 C 68.318 430.981 67.621 426.577 67.621 422.102 C 67.622 398.789 86.589 379.822 109.901 379.822 L 406.27 379.822 L 406.27 395.945 L 272.775 395.945 C 268.062 395.945 264.242 399.766 264.242 404.478 C 264.242 409.191 268.063 413.011 272.775 413.011 L 406.27 413.011 L 406.27 429.304 L 211.904 429.304 L 211.904 413.011 L 220.437 413.011 C 225.15 413.011 228.97 409.19 228.97 404.478 C 228.97 399.767 225.15 395.947 220.437 395.947 Z  M 444.373 464.394 L 444.373 464.394 L 211.903 464.394 L 211.903 446.373 L 414.803 446.373 C 419.516 446.373 423.336 442.552 423.336 437.84 L 423.336 379.824 L 444.372 379.824 L 444.372 464.394 L 444.373 464.394 L 444.373 464.394 Z " fill="white" stroke="none"/></mask><path d=" M 452.911 59.872 C 448.198 59.872 444.378 63.693 444.378 68.405 L 444.378 362.757 L 118.439 362.757 L 118.439 300.515 C 118.439 295.802 114.618 291.982 109.906 291.982 C 105.193 291.982 101.373 295.803 101.373 300.515 L 101.373 363.38 C 88.251 365.278 76.509 371.481 67.624 380.51 L 67.624 59.349 C 67.624 38.957 82.135 21.891 101.373 17.933 L 101.373 50.039 C 101.373 54.752 105.194 58.572 109.906 58.572 C 114.619 58.572 118.439 54.751 118.439 50.039 L 118.439 17.067 L 444.378 17.067 L 444.378 39.961 C 444.377 44.674 448.198 48.494 452.91 48.494 C 457.623 48.494 461.443 44.673 461.443 39.961 L 461.443 8.533 C 461.443 3.82 457.622 0 452.91 0 L 109.905 0 C 77.179 0 50.557 26.624 50.557 59.349 L 50.557 422.059 C 50.557 422.074 50.556 422.089 50.556 422.103 C 50.556 428.38 51.536 434.565 53.465 440.476 C 56.34 449.326 61.344 457.487 67.941 464.084 C 79.162 475.29 94.063 481.461 109.902 481.461 L 122.02 481.461 L 122.02 503.467 C 122.02 506.57 123.703 509.427 126.416 510.931 C 129.127 512.434 132.443 512.348 135.076 510.703 L 166.962 490.774 L 198.848 510.703 C 200.229 511.567 201.798 512 203.371 512 C 204.793 512 206.219 511.645 207.508 510.93 C 210.222 509.426 211.904 506.569 211.904 503.466 L 211.904 481.46 L 452.907 481.46 C 457.62 481.46 461.44 477.639 461.44 472.927 L 461.443 68.405 C 461.445 63.693 457.624 59.872 452.911 59.872 Z  M 194.837 472.916 C 194.837 472.919 194.837 472.923 194.837 472.927 C 194.837 472.932 194.837 472.934 194.837 472.938 L 194.837 488.069 L 171.484 473.474 C 170.1 472.609 168.53 472.177 166.961 472.177 C 165.392 472.177 163.822 472.609 162.438 473.474 L 139.085 488.069 L 139.085 413.012 L 194.836 413.012 L 194.836 472.916 L 194.837 472.916 L 194.837 472.916 Z  M 220.437 395.947 L 110.073 395.947 C 105.36 395.947 101.54 399.768 101.54 404.48 C 101.54 409.193 105.361 413.013 110.073 413.013 L 122.02 413.013 L 122.02 429.306 L 98.695 429.306 C 93.982 429.306 90.162 433.127 90.162 437.839 C 90.162 442.551 93.983 446.372 98.695 446.372 L 122.019 446.372 L 122.019 464.393 L 109.901 464.393 C 98.618 464.393 87.998 459.994 80.004 452.011 C 75.307 447.314 71.743 441.501 69.692 435.19 C 68.318 430.981 67.621 426.577 67.621 422.102 C 67.622 398.789 86.589 379.822 109.901 379.822 L 406.27 379.822 L 406.27 395.945 L 272.775 395.945 C 268.062 395.945 264.242 399.766 264.242 404.478 C 264.242 409.191 268.063 413.011 272.775 413.011 L 406.27 413.011 L 406.27 429.304 L 211.904 429.304 L 211.904 413.011 L 220.437 413.011 C 225.15 413.011 228.97 409.19 228.97 404.478 C 228.97 399.767 225.15 395.947 220.437 395.947 Z  M 444.373 464.394 L 444.373 464.394 L 211.903 464.394 L 211.903 446.373 L 414.803 446.373 C 419.516 446.373 423.336 442.552 423.336 437.84 L 423.336 379.824 L 444.372 379.824 L 444.372 464.394 L 444.373 464.394 L 444.373 464.394 Z " fill="none" mask="url(#_mask_JqjboXD2q0wfhPcmXtQ3YMBXrKRistUt)" vector-effect="non-scaling-stroke" stroke-width="6" stroke="rgb(0,0,0)" stroke-opacity="100" stroke-linejoin="round" stroke-linecap="round" stroke-miterlimit="4"/></g></g><g id="null"><g id="null"><mask id="_mask_zY050Ql5kCZ7zdf6CMoN4RL8aDRLm6q6"><path d=" M 109.905 70.542 C 105.192 70.542 101.372 74.363 101.372 79.075 L 101.372 269.663 C 101.372 274.376 105.193 278.196 109.905 278.196 C 114.618 278.196 118.438 274.375 118.438 269.663 L 118.438 79.076 C 118.439 74.363 114.618 70.542 109.905 70.542 Z " fill="white" stroke="none"/></mask><path d=" M 109.905 70.542 C 105.192 70.542 101.372 74.363 101.372 79.075 L 101.372 269.663 C 101.372 274.376 105.193 278.196 109.905 278.196 C 114.618 278.196 118.438 274.375 118.438 269.663 L 118.438 79.076 C 118.439 74.363 114.618 70.542 109.905 70.542 Z " fill="none" mask="url(#_mask_zY050Ql5kCZ7zdf6CMoN4RL8aDRLm6q6)" vector-effect="non-scaling-stroke" stroke-width="6" stroke="rgb(0,0,0)" stroke-opacity="100" stroke-linejoin="round" stroke-linecap="round" stroke-miterlimit="4"/></g></g><g id="null"><g id="null"><mask id="_mask_jNLvzIQBtbUlqGzEVvKq86DSr4nIEysV"><path d=" M 412.983 79.436 C 395.788 79.436 381.799 65.447 381.799 48.252 C 381.799 43.539 377.978 39.719 373.266 39.719 L 191.365 39.719 C 186.652 39.719 182.832 43.54 182.832 48.252 C 182.832 65.447 168.843 79.436 151.648 79.436 C 146.935 79.436 143.115 83.257 143.115 87.969 L 143.115 289.834 C 143.115 294.547 146.936 298.367 151.648 298.367 C 168.843 298.367 182.832 312.356 182.832 329.551 C 182.832 334.264 186.653 338.084 191.365 338.084 L 228.831 338.084 C 233.544 338.084 237.364 334.263 237.364 329.551 C 237.364 324.838 233.543 321.018 228.831 321.018 L 199.143 321.018 C 195.599 301.24 179.959 285.6 160.181 282.056 L 160.181 95.747 C 179.959 92.203 195.599 76.563 199.143 56.785 L 365.488 56.785 C 369.032 76.563 384.672 92.203 404.45 95.747 L 404.45 282.057 C 384.672 285.601 369.032 301.241 365.488 321.019 L 257.275 321.019 C 252.562 321.019 248.742 324.84 248.742 329.552 C 248.742 334.265 252.563 338.085 257.275 338.085 L 373.266 338.085 C 377.979 338.085 381.799 334.264 381.799 329.552 C 381.799 312.357 395.788 298.368 412.983 298.368 C 417.696 298.368 421.516 294.547 421.516 289.835 L 421.516 87.97 C 421.517 83.257 417.696 79.436 412.983 79.436 Z " fill="white" stroke="none"/></mask><path d=" M 412.983 79.436 C 395.788 79.436 381.799 65.447 381.799 48.252 C 381.799 43.539 377.978 39.719 373.266 39.719 L 191.365 39.719 C 186.652 39.719 182.832 43.54 182.832 48.252 C 182.832 65.447 168.843 79.436 151.648 79.436 C 146.935 79.436 143.115 83.257 143.115 87.969 L 143.115 289.834 C 143.115 294.547 146.936 298.367 151.648 298.367 C 168.843 298.367 182.832 312.356 182.832 329.551 C 182.832 334.264 186.653 338.084 191.365 338.084 L 228.831 338.084 C 233.544 338.084 237.364 334.263 237.364 329.551 C 237.364 324.838 233.543 321.018 228.831 321.018 L 199.143 321.018 C 195.599 301.24 179.959 285.6 160.181 282.056 L 160.181 95.747 C 179.959 92.203 195.599 76.563 199.143 56.785 L 365.488 56.785 C 369.032 76.563 384.672 92.203 404.45 95.747 L 404.45 282.057 C 384.672 285.601 369.032 301.241 365.488 321.019 L 257.275 321.019 C 252.562 321.019 248.742 324.84 248.742 329.552 C 248.742 334.265 252.563 338.085 257.275 338.085 L 373.266 338.085 C 377.979 338.085 381.799 334.264 381.799 329.552 C 381.799 312.357 395.788 298.368 412.983 298.368 C 417.696 298.368 421.516 294.547 421.516 289.835 L 421.516 87.97 C 421.517 83.257 417.696 79.436 412.983 79.436 Z " fill="none" mask="url(#_mask_jNLvzIQBtbUlqGzEVvKq86DSr4nIEysV)" vector-effect="non-scaling-stroke" stroke-width="6" stroke="rgb(0,0,0)" stroke-opacity="100" stroke-linejoin="round" stroke-linecap="round" stroke-miterlimit="4"/></g></g><g id="null"><g id="null"><mask id="_mask_HmzWZ0VWiejh2pizy224gMnsWmoNTla7"><path d=" M 333.515 141.684 L 290.848 141.684 L 290.848 97.88 C 290.848 93.167 287.027 89.347 282.315 89.347 C 277.602 89.347 273.782 93.168 273.782 97.88 L 273.782 141.684 L 231.115 141.684 C 226.402 141.684 222.582 145.505 222.582 150.217 C 222.582 154.93 226.403 158.75 231.115 158.75 L 273.782 158.75 L 273.782 279.923 C 273.782 284.636 277.603 288.456 282.315 288.456 C 287.028 288.456 290.848 284.635 290.848 279.923 L 290.848 158.751 L 333.515 158.751 C 338.228 158.751 342.048 154.93 342.048 150.218 C 342.048 145.505 338.228 141.684 333.515 141.684 Z " fill="white" stroke="none"/></mask><path d=" M 333.515 141.684 L 290.848 141.684 L 290.848 97.88 C 290.848 93.167 287.027 89.347 282.315 89.347 C 277.602 89.347 273.782 93.168 273.782 97.88 L 273.782 141.684 L 231.115 141.684 C 226.402 141.684 222.582 145.505 222.582 150.217 C 222.582 154.93 226.403 158.75 231.115 158.75 L 273.782 158.75 L 273.782 279.923 C 273.782 284.636 277.603 288.456 282.315 288.456 C 287.028 288.456 290.848 284.635 290.848 279.923 L 290.848 158.751 L 333.515 158.751 C 338.228 158.751 342.048 154.93 342.048 150.218 C 342.048 145.505 338.228 141.684 333.515 141.684 Z " fill="none" mask="url(#_mask_HmzWZ0VWiejh2pizy224gMnsWmoNTla7)" vector-effect="non-scaling-stroke" stroke-width="6" stroke="rgb(0,0,0)" stroke-opacity="100" stroke-linejoin="round" stroke-linecap="round" stroke-miterlimit="4"/></g></g></svg>