<?xml version="1.0" standalone="no"?><!-- Generator: Gravit.io --><svg xmlns="http://www.w3.org/2000/svg" xmlns:xlink="http://www.w3.org/1999/xlink" style="isolation:isolate" viewBox="-0.5 0 61 60" width="61" height="60"><mask id="_mask_JXmtJOJQnyE0LSAXW1BmufYgS9V4PYZD"><path d=" M 57.348 1.793 L 15.652 1.793 C 14.189 1.793 13 2.983 13 4.446 L 13 11.793 L 2.652 11.793 C 1.189 11.793 0 12.983 0 14.446 L 0 58.207 L 9.414 48.793 L 44.348 48.793 C 45.811 48.793 47 47.604 47 46.141 L 47 38.793 L 57.348 38.793 C 58.811 38.793 60 37.604 60 36.141 L 60 4.446 C 60 2.983 58.811 1.793 57.348 1.793 Z  M 45 46.141 C 45 46.5 44.707 46.793 44.348 46.793 L 8.586 46.793 L 2 53.379 L 2 14.446 C 2 14.086 2.293 13.793 2.652 13.793 L 13 13.793 L 44.348 13.793 C 44.707 13.793 45 14.086 45 14.446 L 45 38.793 L 45 46.141 L 45 46.141 L 45 46.141 Z  M 58 36.141 C 58 36.5 57.707 36.793 57.348 36.793 L 47 36.793 L 47 14.446 C 47 12.983 45.811 11.793 44.348 11.793 L 15 11.793 L 15 4.446 C 15 4.086 15.293 3.793 15.652 3.793 L 57.347 3.793 C 57.707 3.793 58 4.086 58 4.446 L 58 36.141 L 58 36.141 L 58 36.141 Z " fill="white" stroke="none"/></mask><path d=" M 57.348 1.793 L 15.652 1.793 C 14.189 1.793 13 2.983 13 4.446 L 13 11.793 L 2.652 11.793 C 1.189 11.793 0 12.983 0 14.446 L 0 58.207 L 9.414 48.793 L 44.348 48.793 C 45.811 48.793 47 47.604 47 46.141 L 47 38.793 L 57.348 38.793 C 58.811 38.793 60 37.604 60 36.141 L 60 4.446 C 60 2.983 58.811 1.793 57.348 1.793 Z  M 45 46.141 C 45 46.5 44.707 46.793 44.348 46.793 L 8.586 46.793 L 2 53.379 L 2 14.446 C 2 14.086 2.293 13.793 2.652 13.793 L 13 13.793 L 44.348 13.793 C 44.707 13.793 45 14.086 45 14.446 L 45 38.793 L 45 46.141 L 45 46.141 L 45 46.141 Z  M 58 36.141 C 58 36.5 57.707 36.793 57.348 36.793 L 47 36.793 L 47 14.446 C 47 12.983 45.811 11.793 44.348 11.793 L 15 11.793 L 15 4.446 C 15 4.086 15.293 3.793 15.652 3.793 L 57.347 3.793 C 57.707 3.793 58 4.086 58 4.446 L 58 36.141 L 58 36.141 L 58 36.141 Z " fill="none" mask="url(#_mask_JXmtJOJQnyE0LSAXW1BmufYgS9V4PYZD)" vector-effect="non-scaling-stroke" stroke-width="4" stroke="rgb(0,0,0)" stroke-opacity="100" stroke-linejoin="round" stroke-linecap="round" stroke-miterlimit="4"/><mask id="_mask_5K8Vs9zfm7E5MNoeQm8IAsyzYaPuLIXB"><path d=" M 10 26.777 C 7.794 26.777 6 28.571 6 30.777 C 6 32.983 7.794 34.777 10 34.777 C 12.206 34.777 14 32.983 14 30.777 C 14 28.571 12.206 26.777 10 26.777 Z  M 10 32.777 C 8.897 32.777 8 31.88 8 30.777 C 8 29.674 8.897 28.777 10 28.777 C 11.103 28.777 12 29.674 12 30.777 C 12 31.88 11.103 32.777 10 32.777 Z " fill="white" stroke="none"/></mask><path d=" M 10 26.777 C 7.794 26.777 6 28.571 6 30.777 C 6 32.983 7.794 34.777 10 34.777 C 12.206 34.777 14 32.983 14 30.777 C 14 28.571 12.206 26.777 10 26.777 Z  M 10 32.777 C 8.897 32.777 8 31.88 8 30.777 C 8 29.674 8.897 28.777 10 28.777 C 11.103 28.777 12 29.674 12 30.777 C 12 31.88 11.103 32.777 10 32.777 Z " fill="none" mask="url(#_mask_5K8Vs9zfm7E5MNoeQm8IAsyzYaPuLIXB)" vector-effect="non-scaling-stroke" stroke-width="4" stroke="rgb(0,0,0)" stroke-opacity="100" stroke-linejoin="round" stroke-linecap="round" stroke-miterlimit="4"/><mask id="_mask_1bdSAMmF3afTLzTJJicTO6y3fxcp4gDs"><path d=" M 23 26.777 C 20.794 26.777 19 28.571 19 30.777 C 19 32.983 20.794 34.777 23 34.777 C 25.206 34.777 27 32.983 27 30.777 C 27 28.571 25.206 26.777 23 26.777 Z  M 23 32.777 C 21.897 32.777 21 31.88 21 30.777 C 21 29.674 21.897 28.777 23 28.777 C 24.103 28.777 25 29.674 25 30.777 C 25 31.88 24.103 32.777 23 32.777 Z " fill="white" stroke="none"/></mask><path d=" M 23 26.777 C 20.794 26.777 19 28.571 19 30.777 C 19 32.983 20.794 34.777 23 34.777 C 25.206 34.777 27 32.983 27 30.777 C 27 28.571 25.206 26.777 23 26.777 Z  M 23 32.777 C 21.897 32.777 21 31.88 21 30.777 C 21 29.674 21.897 28.777 23 28.777 C 24.103 28.777 25 29.674 25 30.777 C 25 31.88 24.103 32.777 23 32.777 Z " fill="none" mask="url(#_mask_1bdSAMmF3afTLzTJJicTO6y3fxcp4gDs)" vector-effect="non-scaling-stroke" stroke-width="4" stroke="rgb(0,0,0)" stroke-opacity="100" stroke-linejoin="round" stroke-linecap="round" stroke-miterlimit="4"/><mask id="_mask_03fssegCseCR3kO2clQWqWkl3nGZNqiS"><path d=" M 36 26.777 C 33.794 26.777 32 28.571 32 30.777 C 32 32.983 33.794 34.777 36 34.777 C 38.206 34.777 40 32.983 40 30.777 C 40 28.571 38.206 26.777 36 26.777 Z  M 36 32.777 C 34.897 32.777 34 31.88 34 30.777 C 34 29.674 34.897 28.777 36 28.777 C 37.103 28.777 38 29.674 38 30.777 C 38 31.88 37.103 32.777 36 32.777 Z " fill="white" stroke="none"/></mask><path d=" M 36 26.777 C 33.794 26.777 32 28.571 32 30.777 C 32 32.983 33.794 34.777 36 34.777 C 38.206 34.777 40 32.983 40 30.777 C 40 28.571 38.206 26.777 36 26.777 Z  M 36 32.777 C 34.897 32.777 34 31.88 34 30.777 C 34 29.674 34.897 28.777 36 28.777 C 37.103 28.777 38 29.674 38 30.777 C 38 31.88 37.103 32.777 36 32.777 Z " fill="none" mask="url(#_mask_03fssegCseCR3kO2clQWqWkl3nGZNqiS)" vector-effect="non-scaling-stroke" stroke-width="4" stroke="rgb(0,0,0)" stroke-opacity="100" stroke-linejoin="round" stroke-linecap="round" stroke-miterlimit="4"/></svg>